<?xml version="1.0" encoding="UTF-8"?>
<svg xmlns="http://www.w3.org/2000/svg" viewBox="0 0 131.03 131.03">
  <g transform="translate(30.745 0)">
    <g>
      <g>
        <path fill="#ffffff" d="M69.54.97v31.28c-5.38-1.13-11.16-1.74-17.17-1.74-7.27,0-14.21.9-20.5,2.52-9.4,2.42-17.39,6.45-23.01,11.52-1.46,1.31-2.75,2.69-3.87,4.13C1.78,52.77,0,57.34,0,62.17v-27.84C-.03,22.23,16.56-.61,56.69.01c4.43.07,8.73.33,12.84.96Z"/>
        <path fill="#ffffff" d="M31.86,59.54v31.76C13.13,86.48,0,75.25,0,62.17,0,57.34,1.78,52.77,4.98,48.68c1.12-1.44,2.42-2.82,3.87-4.13,4.72,6.4,12.86,11.68,23.01,14.99Z"/>
      </g>
      <g>
        <path fill="#ffffff" d="M0,130.05v-31.28c5.38,1.13,11.16,1.74,17.17,1.74,7.27,0,14.21-.9,20.5-2.52,9.4-2.42,17.39-6.45,23.01-11.52,1.46-1.31,2.75-2.69,3.87-4.13,3.19-4.09,4.98-8.66,4.98-13.48v27.84c.03,12.1-16.56,34.94-56.69,34.31C8.41,130.95,4.11,130.68,0,130.05Z"/>
        <path fill="#ffffff" d="M37.67,71.49v-31.76c18.73,4.82,31.86,16.05,31.86,29.13,0,4.82-1.78,9.4-4.98,13.48-1.12,1.44-2.42,2.82-3.87,4.13-4.72-6.4-12.86-11.68-23.01-14.99Z"/>
      </g>
    </g>
  </g>
</svg>
