<?xml version="1.0" encoding="UTF-8"?>
<svg id="Layer_2" data-name="Layer 2" xmlns="http://www.w3.org/2000/svg" viewBox="0 0 304.97 111.96">
  <defs>
    <style>
      .cls-1 {
        fill: #fff;
      }
    </style>
  </defs>
  <g id="Layer_1-2" data-name="Layer 1">
    <g>
      <g>
        <path class="cls-1" d="M85.5,49.9l.39-3.12c2.07.25,5.4.6,7.23.6,2.95,0,4.35-1.33,4.35-3.82,0-2-1.09-2.7-4.77-3.61-5.23-1.33-7.44-2.91-7.44-7.05,0-4.84,3.19-6.88,8-6.88,2.21,0,5.68.49,7.61.84l-.32,3.19c-2.1-.25-5.47-.6-6.94-.6-2.95,0-4.42,1.09-4.42,3.16,0,2.21,1.26,2.7,5.37,3.86,5.02,1.4,6.84,2.74,6.84,6.84,0,5.26-3.3,7.54-8.03,7.54-2.28,0-5.82-.56-7.86-.95Z"/>
        <path class="cls-1" d="M109.78,40.57l-7.54-14.14h4.38l5.09,10.28,5.09-10.28h4.38l-7.47,14.14v9.89h-3.93v-9.89Z"/>
        <path class="cls-1" d="M123.91,26.44h9.12c5.3,0,8.14,2.35,8.14,7.65,0,3.4-1.37,5.75-3.89,6.95l3.93,9.44h-4.31l-3.44-8.56h-5.61v8.56h-3.93v-24.03ZM133.1,38.54c2.91,0,4.03-1.93,4.03-4.42,0-2.7-1.33-4.28-4.1-4.28h-5.19v8.7h5.26Z"/>
        <path class="cls-1" d="M145.38,26.44h3.93v24.03h-3.93v-24.03Z"/>
        <path class="cls-1" d="M158.43,26.44h7.82l5.93,24.03h-3.96l-1.26-5.12h-9.19l-1.3,5.12h-3.93l5.89-24.03ZM166.18,41.87l-2.95-12.14h-1.75l-2.95,12.14h7.65Z"/>
        <path class="cls-1" d="M175.4,26.44h6.84l7.26,20.59h.49v-20.59h3.93v24.03h-6.7l-7.4-20.59h-.49v20.59h-3.93v-24.03Z"/>
        <path class="cls-1" d="M205.81,38.47c0-8.7,1.82-12.42,9.01-12.42,2.49,0,5.37.53,6.87.88l-.14,3.19c-1.58-.28-4.49-.6-6.21-.6-4.42,0-5.47,2.14-5.47,8.94s.88,8.87,5.58,8.87c1.79,0,4.59-.28,6.1-.53l.1,3.26c-1.65.35-4.59.77-6.84.77-7.33,0-9.01-4.17-9.01-12.38Z"/>
        <path class="cls-1" d="M225.63,26.44h3.93v20.52h9.54v3.51h-13.47v-24.03Z"/>
        <path class="cls-1" d="M240.61,38.57c0-8.03,2.28-12.52,9.79-12.52s9.75,4.45,9.75,12.52-2.24,12.28-9.75,12.28-9.79-4.17-9.79-12.28ZM256.08,38.57c0-5.93-1.09-9.08-5.68-9.08s-5.72,3.12-5.72,9.08,1.05,8.84,5.72,8.84,5.68-2.77,5.68-8.84Z"/>
        <path class="cls-1" d="M264.25,42.71v-16.28h3.93v16.35c0,3.23,1.72,4.63,4.88,4.63s4.95-1.4,4.95-4.63v-16.35h3.93v16.28c0,5.79-3.09,8.14-8.87,8.14s-8.81-2.35-8.81-8.14Z"/>
        <path class="cls-1" d="M287.05,26.44h8.28c7.79,0,9.65,4.1,9.65,11.61s-1.68,12.42-9.65,12.42h-8.28v-24.03ZM295.33,47.03c4.84,0,5.61-3.72,5.61-8.98s-.77-8.17-5.61-8.17h-4.35v17.15h4.35Z"/>
        <path class="cls-1" d="M85.61,72.64c0-8.7,1.82-12.42,9.01-12.42,2.49,0,5.37.53,6.87.88l-.14,3.19c-1.58-.28-4.49-.6-6.21-.6-4.42,0-5.47,2.14-5.47,8.94s.88,8.87,5.58,8.87c1.79,0,4.59-.28,6.1-.53l.11,3.26c-1.65.35-4.6.77-6.84.77-7.33,0-9.01-4.17-9.01-12.38Z"/>
        <path class="cls-1" d="M104.09,72.75c0-8.03,2.28-12.52,9.79-12.52s9.75,4.45,9.75,12.52-2.24,12.28-9.75,12.28-9.79-4.17-9.79-12.28ZM119.56,72.75c0-5.93-1.09-9.08-5.68-9.08s-5.72,3.12-5.72,9.08,1.05,8.84,5.72,8.84,5.68-2.77,5.68-8.84Z"/>
        <path class="cls-1" d="M127.94,60.61h6.81l5.33,18.73,5.33-18.73h6.84v24.03h-3.93v-19.68h-.53l-5.68,18.7h-4.07l-5.65-18.7h-.53v19.68h-3.93v-24.03Z"/>
        <path class="cls-1" d="M157.55,60.61h8.8c5.47,0,8.17,2.67,8.17,8.1s-2.7,8.45-8.17,8.45h-4.88v7.47h-3.93v-24.03ZM166.32,73.77c2.88,0,4.21-1.75,4.21-5.05s-1.33-4.7-4.21-4.7h-4.84v9.75h4.84Z"/>
        <path class="cls-1" d="M177.86,76.89v-16.28h3.93v16.35c0,3.23,1.72,4.63,4.88,4.63s4.95-1.4,4.95-4.63v-16.35h3.93v16.28c0,5.79-3.09,8.14-8.87,8.14s-8.81-2.35-8.81-8.14Z"/>
        <path class="cls-1" d="M205.18,64.12h-6.84v-3.51h17.54v3.51h-6.77v20.52h-3.93v-20.52Z"/>
        <path class="cls-1" d="M218.9,60.61h3.93v24.03h-3.93v-24.03Z"/>
        <path class="cls-1" d="M228.12,60.61h6.84l7.26,20.59h.49v-20.59h3.93v24.03h-6.7l-7.4-20.59h-.49v20.59h-3.93v-24.03Z"/>
        <path class="cls-1" d="M250.96,72.64c0-8.42,2.32-12.42,9.47-12.42,2.7,0,6.24.53,8.17.95l-.14,3.12c-1.82-.25-5.12-.6-7.44-.6-4.77,0-6,2.17-6,8.94s1.02,8.94,5.89,8.94c1.26,0,2.95-.18,3.79-.28v-5.82h-2.95v-3.47h6.84v12.21c-1.93.32-5.75.81-8.03.81-7.65,0-9.61-4.42-9.61-12.38Z"/>
      </g>
      <g>
        <g>
          <path class="cls-1" d="M59.42.83v26.73c-4.6-.97-9.53-1.49-14.67-1.49-6.22,0-12.14.77-17.52,2.15-8.03,2.07-14.85,5.51-19.66,9.84-1.24,1.12-2.35,2.3-3.31,3.53C1.52,45.09,0,49,0,53.12v-23.79C-.03,18.99,14.15-.52,48.44.01c3.79.06,7.46.29,10.97.82Z"/>
          <path class="cls-1" d="M27.23,50.87v27.14C11.22,73.89,0,64.3,0,53.12,0,49,1.52,45.09,4.25,41.6c.96-1.23,2.07-2.41,3.31-3.53,4.03,5.47,10.99,9.98,19.66,12.81Z"/>
        </g>
        <g>
          <path class="cls-1" d="M0,111.13v-26.73c4.6.97,9.53,1.49,14.67,1.49,6.22,0,12.14-.77,17.52-2.15,8.03-2.07,14.85-5.51,19.66-9.84,1.24-1.12,2.35-2.3,3.31-3.53,2.73-3.49,4.25-7.4,4.25-11.52v23.79c.03,10.34-14.15,29.85-48.44,29.32C7.19,111.89,3.51,111.66,0,111.13Z"/>
          <path class="cls-1" d="M32.19,61.08v-27.14c16,4.12,27.23,13.71,27.23,24.89,0,4.12-1.52,8.03-4.25,11.52-.96,1.23-2.07,2.41-3.31,3.53-4.03-5.47-10.99-9.98-19.66-12.81Z"/>
        </g>
      </g>
    </g>
  </g>
</svg>
