<?xml version="1.0" encoding="UTF-8"?>
<svg id="Layer_2" data-name="Layer 2" xmlns="http://www.w3.org/2000/svg" viewBox="0 0 386.13 142.25">
  <defs>
    <style>
      .cls-1 {
        fill: #fff;
      }
    </style>
  </defs>
  <g id="Layer_1-2" data-name="Layer 1">
    <g>
      <g>
        <g>
          <path class="cls-1" d="M40.23,78.65v-29.25l.06-5.2c19.75,5.03,33.69,17.41,33.54,31.74-.08,6.92-3.43,13.32-9.12,18.6-5.12-6.88-13.78-12.5-24.47-15.89Z"/>
          <path class="cls-1" d="M0,140.32v-34.35c6.38,1.84,13.41,2.89,20.81,2.97,18.22.19,34.34-5.53,43.9-14.4,3.32,4.46,5.17,9.45,5.11,14.71-.21,18.54-23.94,33.32-53.01,33-5.88-.06-11.54-.73-16.81-1.93Z"/>
        </g>
        <g>
          <path class="cls-1" d="M33.6,63.61v29.25l-.06,5.2C13.79,93.03-.15,80.65,0,66.32c.08-6.92,3.43-13.32,9.12-18.6,5.12,6.88,13.78,12.5,24.47,15.89Z"/>
          <path class="cls-1" d="M73.83,1.93v34.35c-6.38-1.84-13.41-2.89-20.81-2.97-18.22-.19-34.34,5.53-43.9,14.4-3.32-4.46-5.17-9.45-5.11-14.71C4.22,14.47,27.95-.31,57.02,0c5.88.06,11.54.73,16.81,1.93Z"/>
        </g>
      </g>
      <g>
        <path class="cls-1" d="M107.84,64.08l.49-3.96c2.63.31,6.85.76,9.16.76,3.74,0,5.52-1.69,5.52-4.85,0-2.54-1.38-3.43-6.05-4.58-6.63-1.69-9.43-3.69-9.43-8.94,0-6.14,4.05-8.72,10.14-8.72,2.8,0,7.21.62,9.65,1.07l-.4,4.05c-2.67-.31-6.94-.76-8.81-.76-3.74,0-5.61,1.38-5.61,4,0,2.8,1.6,3.42,6.81,4.89,6.36,1.78,8.67,3.47,8.67,8.67,0,6.67-4.18,9.56-10.19,9.56-2.89,0-7.38-.71-9.96-1.2Z"/>
        <path class="cls-1" d="M138.62,52.25l-9.56-17.92h5.56l6.45,13.03,6.45-13.03h5.56l-9.47,17.92v12.54h-4.98v-12.54Z"/>
        <path class="cls-1" d="M156.54,34.33h11.56c6.72,0,10.32,2.98,10.32,9.7,0,4.31-1.73,7.29-4.94,8.81l4.98,11.96h-5.47l-4.36-10.85h-7.12v10.85h-4.98v-30.47ZM168.19,49.67c3.69,0,5.11-2.45,5.11-5.6,0-3.42-1.69-5.43-5.2-5.43h-6.58v11.03h6.67Z"/>
        <path class="cls-1" d="M183.76,34.33h4.98v30.47h-4.98v-30.47Z"/>
        <path class="cls-1" d="M200.31,34.33h9.92l7.52,30.47h-5.03l-1.6-6.49h-11.65l-1.64,6.49h-4.98l7.47-30.47ZM210.14,53.9l-3.74-15.39h-2.22l-3.74,15.39h9.7Z"/>
        <path class="cls-1" d="M221.83,34.33h8.67l9.21,26.11h.62v-26.11h4.98v30.47h-8.5l-9.39-26.11h-.62v26.11h-4.98v-30.47Z"/>
        <path class="cls-1" d="M260.39,49.59c0-11.03,2.31-15.75,11.43-15.75,3.16,0,6.8.67,8.72,1.11l-.18,4.05c-2-.36-5.69-.76-7.87-.76-5.6,0-6.94,2.71-6.94,11.34s1.11,11.25,7.07,11.25c2.27,0,5.83-.36,7.74-.67l.13,4.14c-2.09.44-5.83.98-8.67.98-9.3,0-11.43-5.29-11.43-15.7Z"/>
        <path class="cls-1" d="M285.52,34.33h4.98v26.02h12.1v4.45h-17.08v-30.47Z"/>
        <path class="cls-1" d="M304.52,49.72c0-10.19,2.89-15.88,12.41-15.88s12.36,5.65,12.36,15.88-2.85,15.57-12.36,15.57-12.41-5.29-12.41-15.57ZM324.13,49.72c0-7.52-1.38-11.52-7.2-11.52s-7.25,3.96-7.25,11.52,1.33,11.21,7.25,11.21,7.2-3.51,7.2-11.21Z"/>
        <path class="cls-1" d="M334.49,54.97v-20.64h4.98v20.73c0,4.09,2.18,5.87,6.18,5.87s6.27-1.78,6.27-5.87v-20.73h4.98v20.64c0,7.34-3.91,10.32-11.25,10.32s-11.16-2.98-11.16-10.32Z"/>
        <path class="cls-1" d="M363.4,34.33h10.5c9.87,0,12.23,5.2,12.23,14.72s-2.13,15.75-12.23,15.75h-10.5v-30.47ZM373.9,60.44c6.14,0,7.12-4.71,7.12-11.39s-.98-10.36-7.12-10.36h-5.52v21.75h5.52Z"/>
        <path class="cls-1" d="M107.97,92.92c0-11.03,2.31-15.75,11.43-15.75,3.16,0,6.8.67,8.72,1.11l-.18,4.05c-2-.36-5.69-.76-7.87-.76-5.6,0-6.94,2.71-6.94,11.34s1.11,11.25,7.07,11.25c2.27,0,5.83-.36,7.74-.67l.13,4.14c-2.09.44-5.83.98-8.67.98-9.3,0-11.43-5.29-11.43-15.7Z"/>
        <path class="cls-1" d="M131.41,93.05c0-10.19,2.89-15.88,12.41-15.88s12.37,5.65,12.37,15.88-2.85,15.57-12.37,15.57-12.41-5.29-12.41-15.57ZM151.02,93.05c0-7.52-1.38-11.52-7.21-11.52s-7.25,3.96-7.25,11.52,1.33,11.21,7.25,11.21,7.21-3.51,7.21-11.21Z"/>
        <path class="cls-1" d="M161.65,77.67h8.63l6.76,23.75,6.76-23.75h8.67v30.47h-4.98v-24.95h-.67l-7.21,23.71h-5.16l-7.16-23.71h-.67v24.95h-4.98v-30.47Z"/>
        <path class="cls-1" d="M199.19,77.67h11.16c6.94,0,10.36,3.38,10.36,10.27s-3.42,10.72-10.36,10.72h-6.18v9.47h-4.98v-30.47ZM210.31,94.35c3.65,0,5.34-2.22,5.34-6.4s-1.69-5.96-5.34-5.96h-6.14v12.37h6.14Z"/>
        <path class="cls-1" d="M224.95,98.3v-20.64h4.98v20.73c0,4.09,2.18,5.87,6.18,5.87s6.27-1.78,6.27-5.87v-20.73h4.98v20.64c0,7.34-3.91,10.32-11.25,10.32s-11.16-2.98-11.16-10.32Z"/>
        <path class="cls-1" d="M259.59,82.11h-8.67v-4.45h22.24v4.45h-8.58v26.02h-4.98v-26.02Z"/>
        <path class="cls-1" d="M276.98,77.67h4.98v30.47h-4.98v-30.47Z"/>
        <path class="cls-1" d="M288.68,77.67h8.67l9.21,26.11h.62v-26.11h4.98v30.47h-8.5l-9.39-26.11h-.62v26.11h-4.98v-30.47Z"/>
        <path class="cls-1" d="M317.64,92.92c0-10.67,2.94-15.75,12.01-15.75,3.42,0,7.92.67,10.36,1.2l-.18,3.96c-2.31-.31-6.49-.76-9.43-.76-6.05,0-7.61,2.76-7.61,11.34s1.29,11.34,7.47,11.34c1.6,0,3.74-.22,4.8-.36v-7.38h-3.74v-4.4h8.67v15.48c-2.45.4-7.29,1.02-10.18,1.02-9.7,0-12.19-5.6-12.19-15.7Z"/>
      </g>
    </g>
  </g>
</svg>
