<?xml version="1.0" encoding="UTF-8"?>
<svg id="Layer_2" data-name="Layer 2" xmlns="http://www.w3.org/2000/svg" viewBox="0 0 347.68 112.31">
  <defs>
    <style>
      .cls-1 {
        fill: #fff;
      }
    </style>
  </defs>
  <g id="Layer_1-2" data-name="Layer 1">
    <g>
      <g>
        <g>
          <path class="cls-1" d="M347.68.83v26.82c-4.61-.97-9.56-1.49-14.72-1.49-6.24,0-12.18.77-17.57,2.16-8.05,2.07-14.9,5.53-19.72,9.87-1.25,1.12-2.36,2.31-3.32,3.54-2.74,3.51-4.27,7.42-4.27,11.56v-23.87c-.03-10.37,14.19-29.95,48.6-29.41,3.8.06,7.49.29,11.01.82Z"/>
          <path class="cls-1" d="M315.38,51.04v27.22c-16.05-4.13-27.31-13.76-27.31-24.97,0-4.14,1.53-8.05,4.27-11.56.96-1.23,2.07-2.42,3.32-3.54,4.05,5.49,11.02,10.01,19.72,12.85Z"/>
        </g>
        <g>
          <path class="cls-1" d="M288.07,111.48v-26.82c4.61.97,9.56,1.49,14.72,1.49,6.24,0,12.18-.77,17.57-2.16,8.05-2.07,14.9-5.53,19.72-9.87,1.25-1.12,2.36-2.31,3.32-3.54,2.74-3.51,4.27-7.42,4.27-11.56v23.87c.03,10.37-14.19,29.95-48.6,29.41-3.8-.06-7.49-.29-11.01-.82Z"/>
          <path class="cls-1" d="M320.36,61.28v-27.22c16.05,4.13,27.31,13.76,27.31,24.97,0,4.14-1.53,8.05-4.27,11.56-.96,1.23-2.07,2.42-3.32,3.54-4.05-5.49-11.02-10.01-19.72-12.85Z"/>
        </g>
      </g>
      <g>
        <path class="cls-1" d="M24.33,33.35v17.48s-13.95,0-13.95,0c-6.96,0-10.38-2.34-10.38-7.45,0-2.17.63-4.79.91-6.26l3.74.7c-.28,1.43-.84,3.74-.84,5.59,0,2.87,1.43,3.99,6.57,3.99h10.14v-14.05s3.81,0,3.81,0ZM11.08,33.28h-3.81s0-4.06,0-4.06h3.81s0,4.06,0,4.06ZM17.06,33.28h-3.81s0-4.06,0-4.06h3.81s0,4.06,0,4.06Z"/>
        <path class="cls-1" d="M39.47,49.12c0,1.05-.1,1.71-.7,1.71h-8.57s0-24.75,0-24.75h3.81s0,21.33,0,21.33h4.76c.59,0,.7.66.7,1.71Z"/>
        <path class="cls-1" d="M48.21,49.12c0,1.05-.1,1.71-.7,1.71h-8.74c-.59,0-.7-.66-.7-1.71s.11-1.71.7-1.71h8.74c.59,0,.7.66.7,1.71Z"/>
        <path class="cls-1" d="M68.1,42.27v8.57s-20.59,0-20.59,0c-.59,0-.7-.66-.7-1.71,0-1.05.11-1.71.7-1.71h4.3c-.21-1.33-.35-3.01-.35-4.79,0-3.39.59-6.71,1.01-8.32,1.05-.42,3.57-.94,6.43-.94,6.12,0,9.19,2.38,9.19,8.92ZM64.29,47.4v-5.14c0-4.34-1.12-5.49-5.38-5.49-1.08,0-2.2.11-3.15.24-.28,1.71-.49,3.78-.49,5.59,0,1.64.18,3.46.35,4.79h8.67Z"/>
        <path class="cls-1" d="M90.27,49.12c0,1.05-.11,1.71-.7,1.71h-17.52s0-3.43,0-3.43h9.72v-4.68c0-4.68-1.22-5.94-5.07-5.94h-2.83s0-3.43,0-3.43h2.83c5.59,0,8.88,2.34,8.88,9.37v4.68h3.99c.59,0,.7.66.7,1.71Z"/>
        <path class="cls-1" d="M111.87,49.12c0,1.05-.1,1.71-.7,1.71h-21.61c-.59,0-.7-.66-.7-1.71,0-1.05.11-1.71.7-1.71h13.81v-6.5c0-2.73-1.68-4.09-5.1-4.09-1.33,0-2.97.21-5.87.56l-.42-3.11c2.03-.49,4.19-.91,6.26-.91,5.38,0,8.95,2.76,8.95,7.55v6.5h3.99c.59,0,.7.66.7,1.71ZM100.16,31.08h-3.81s0-4.06,0-4.06h3.81s0,4.06,0,4.06Z"/>
        <path class="cls-1" d="M119.77,26.08v24.75s-8.6,0-8.6,0c-.59,0-.7-.66-.7-1.71,0-1.05.11-1.71.7-1.71h4.79v-21.33s3.81,0,3.81,0Z"/>
        <path class="cls-1" d="M151.76,49.12c0,1.05-.14,1.71-.7,1.71h-11.89c-6.12,0-7.8-2.73-7.8-8.74,0-6.01,1.68-8.74,7.8-8.74h7.9s0,14.05,0,14.05h3.99c.56,0,.7.66.7,1.71ZM138.72,30.8h-3.81s0-4.06,0-4.06h3.81s0,4.06,0,4.06ZM143.26,47.4v-10.63h-4.09c-3.32,0-3.99.59-3.99,5.31s.66,5.31,3.99,5.31h4.09ZM144.7,30.8h-3.81s0-4.06,0-4.06h3.81s0,4.06,0,4.06Z"/>
        <path class="cls-1" d="M160.5,49.12c0,1.05-.11,1.71-.7,1.71h-8.74c-.59,0-.7-.66-.7-1.71,0-1.05.11-1.71.7-1.71h8.74c.59,0,.7.66.7,1.71Z"/>
        <path class="cls-1" d="M169.24,49.12c0,1.05-.11,1.71-.7,1.71h-8.74c-.59,0-.7-.66-.7-1.71,0-1.05.11-1.71.7-1.71h8.74c.59,0,.7.66.7,1.71Z"/>
        <path class="cls-1" d="M176.34,50.83h-7.8c-.59,0-.7-.66-.7-1.71,0-1.05.11-1.71.7-1.71h3.98v-14.05s3.81,0,3.81,0v17.48ZM169.55,52.93h3.81s0,4.02,0,4.02h-3.81s0-4.02,0-4.02ZM179.31,52.93v4.02s-3.81,0-3.81,0v-4.02s3.81,0,3.81,0Z"/>
        <path class="cls-1" d="M179.73,59.33l.46-3.43c.7.07,1.19.14,1.5.14,1.57,0,2.59-1.29,2.59-3.74v-18.95s3.81,0,3.81,0v18.95c0,4.3-2.62,7.17-6.4,7.17-.59,0-1.33-.07-1.96-.14Z"/>
        <path class="cls-1" d="M212.17,49.12c0,1.05-.14,1.71-.7,1.71h-4.02v.52c0,4.89-2.55,8.08-7.66,8.08-1.61,0-3.71-.31-5.52-.7l.8-3.36c1.89.42,3.5.63,4.72.63,2.62,0,3.85-1.33,3.85-4.65v-.52h-4.09c-6.12,0-7.8-2.73-7.8-8.74,0-6.01,1.68-8.74,7.8-8.74h7.9s0,14.05,0,14.05h4.02c.56,0,.7.66.7,1.71ZM203.64,47.4v-10.63h-4.09c-3.32,0-3.99.59-3.99,5.31s.66,5.31,3.99,5.31h4.09Z"/>
        <path class="cls-1" d="M244.26,49.12c0,1.05-.14,1.71-.7,1.71h-12.62c-1.22,0-2.48-.38-3.6-1.08-1.05.73-2.41,1.08-4.2,1.08h-11.68c-.59,0-.7-.66-.7-1.71,0-1.05.11-1.71.7-1.71h4.55v-12.31s3.81,0,3.81,0v12.31h3.32c2.2,0,2.69-.63,2.69-4.68v-7.62s3.81,0,3.81,0v7.62c0,1.57-.14,2.9-.42,3.99.66.52,1.15.7,1.71.7h4.83v-6.26c0-1.05-.42-4.2-.98-7.2l3.78-.59c.42,2.48,1.01,6.26,1.01,7.8v6.26h3.99c.56,0,.7.66.7,1.71Z"/>
        <path class="cls-1" d="M252.16,26.08v24.75s-8.6,0-8.6,0c-.59,0-.7-.66-.7-1.71s.11-1.71.7-1.71h4.79v-21.33s3.81,0,3.81,0Z"/>
        <path class="cls-1" d="M257.93,26.08h3.81s0,24.75,0,24.75h-3.81s0-24.75,0-24.75Z"/>
        <path class="cls-1" d="M21.26,84.97c0,1.05-.14,1.71-.7,1.71h-11.89c-6.12,0-7.8-2.73-7.8-8.74,0-6.01,1.68-8.74,7.8-8.74h7.9s0,14.05,0,14.05h3.99c.56,0,.7.66.7,1.71ZM8.22,66.65h-3.81s0-4.06,0-4.06h3.81s0,4.06,0,4.06ZM12.76,83.26v-10.63h-4.09c-3.32,0-3.99.59-3.99,5.31,0,4.72.66,5.31,3.99,5.31h4.09ZM14.19,66.65h-3.81s0-4.06,0-4.06h3.81s0,4.06,0,4.06Z"/>
        <path class="cls-1" d="M33.04,84.97c0,1.05-.1,1.71-.7,1.71h-11.78c-.59,0-.7-.66-.7-1.71,0-1.05.11-1.71.7-1.71h3.99v-14.05s3.81,0,3.81,0v14.05h3.99c.59,0,.7.66.7,1.71ZM21.57,88.78h3.81s0,4.02,0,4.02h-3.81s0-4.02,0-4.02ZM27.51,88.78h3.81s0,4.02,0,4.02h-3.81s0-4.02,0-4.02Z"/>
        <path class="cls-1" d="M40.13,69.21v17.48s-7.8,0-7.8,0c-.59,0-.7-.66-.7-1.71s.11-1.71.7-1.71h3.99v-14.05s3.81,0,3.81,0ZM36.32,88.78h3.81s0,4.02,0,4.02h-3.81s0-4.02,0-4.02Z"/>
        <path class="cls-1" d="M55.27,84.97c0,1.05-.1,1.71-.7,1.71h-8.57s0-24.75,0-24.75h3.81s0,21.33,0,21.33h4.76c.59,0,.7.66.7,1.71Z"/>
        <path class="cls-1" d="M76.88,84.97c0,1.05-.1,1.71-.7,1.71h-21.61c-.59,0-.7-.66-.7-1.71,0-1.05.11-1.71.7-1.71h13.81v-6.5c0-2.73-1.68-4.09-5.1-4.09-1.33,0-2.97.21-5.87.56l-.42-3.11c2.03-.49,4.19-.91,6.26-.91,5.38,0,8.95,2.76,8.95,7.55v6.5h3.99c.59,0,.7.66.7,1.71Z"/>
        <path class="cls-1" d="M108.97,84.97c0,1.05-.14,1.71-.7,1.71h-12.62c-1.22,0-2.48-.38-3.6-1.08-1.05.73-2.41,1.08-4.19,1.08h-11.68c-.59,0-.7-.66-.7-1.71s.11-1.71.7-1.71h4.55v-12.31s3.81,0,3.81,0v12.31h3.32c2.2,0,2.69-.63,2.69-4.68v-7.62s3.81,0,3.81,0v7.62c0,1.57-.14,2.9-.42,3.99.66.52,1.15.7,1.71.7h4.82v-6.26c0-1.05-.42-4.2-.98-7.2l3.78-.59c.42,2.48,1.01,6.26,1.01,7.8v6.26h3.99c.56,0,.7.66.7,1.71Z"/>
        <path class="cls-1" d="M116.87,61.93v24.75s-8.6,0-8.6,0c-.59,0-.7-.66-.7-1.71,0-1.05.11-1.71.7-1.71h4.79v-21.33s3.81,0,3.81,0Z"/>
        <path class="cls-1" d="M122.64,61.93h3.81s0,24.75,0,24.75h-3.81s0-24.75,0-24.75Z"/>
        <path class="cls-1" d="M159.14,84.97c0,1.05-.14,1.71-.7,1.71h-11.89c-6.12,0-7.8-2.73-7.8-8.74,0-6.01,1.68-8.74,7.8-8.74h7.9s0,14.05,0,14.05h3.99c.56,0,.7.66.7,1.71ZM146.1,66.65h-3.81s0-4.06,0-4.06h3.81s0,4.06,0,4.06ZM150.64,83.26v-10.63h-4.09c-3.32,0-3.99.59-3.99,5.31s.66,5.31,3.99,5.31h4.09ZM152.07,66.65h-3.81s0-4.06,0-4.06h3.81s0,4.06,0,4.06Z"/>
        <path class="cls-1" d="M170.92,84.97c0,1.05-.11,1.71-.7,1.71h-11.78c-.59,0-.7-.66-.7-1.71s.11-1.71.7-1.71h3.99v-14.05s3.81,0,3.81,0v14.05h3.99c.59,0,.7.66.7,1.71ZM162.42,88.78h3.81s0,4.02,0,4.02h-3.81s0-4.02,0-4.02Z"/>
        <path class="cls-1" d="M198.33,77v9.68s-8.64,0-8.64,0c-1.22,0-2.48-.38-3.6-1.08-1.05.73-2.41,1.08-4.2,1.08h-11.68c-.59,0-.7-.66-.7-1.71s.11-1.71.7-1.71h4.55v-12.31s3.81,0,3.81,0v12.31h3.32c2.2,0,2.69-.63,2.69-4.68v-7.62s3.81,0,3.81,0v7.62c0,1.57-.14,2.9-.42,3.99.66.52,1.15.7,1.71.7h4.83v-6.26c0-1.05-.42-4.2-.98-7.2l3.78-.59c.42,2.48,1.01,6.26,1.01,7.8Z"/>
        <path class="cls-1" d="M222.66,84.97c0,1.05-.14,1.71-.7,1.71h-4.02v.52c0,4.89-2.55,8.08-7.66,8.08-1.61,0-3.71-.31-5.52-.7l.8-3.36c1.89.42,3.5.63,4.72.63,2.62,0,3.85-1.33,3.85-4.65v-.52h-4.09c-6.12,0-7.8-2.73-7.8-8.74,0-6.01,1.68-8.74,7.8-8.74h7.9s0,14.05,0,14.05h4.02c.56,0,.7.66.7,1.71ZM214.13,83.26v-10.63h-4.09c-3.32,0-3.99.59-3.99,5.31,0,4.72.66,5.31,3.99,5.31h4.09Z"/>
        <path class="cls-1" d="M244.26,84.97c0,1.05-.11,1.71-.7,1.71h-21.61c-.59,0-.7-.66-.7-1.71s.11-1.71.7-1.71h13.81v-6.5c0-2.73-1.68-4.09-5.1-4.09-1.33,0-2.97.21-5.87.56l-.42-3.11c2.03-.49,4.19-.91,6.26-.91,5.38,0,8.95,2.76,8.95,7.55v6.5h3.98c.59,0,.7.66.7,1.71Z"/>
        <path class="cls-1" d="M252.16,61.93v24.75s-8.6,0-8.6,0c-.59,0-.7-.66-.7-1.71,0-1.05.11-1.71.7-1.71h4.79v-21.33s3.81,0,3.81,0Z"/>
        <path class="cls-1" d="M257.93,61.93h3.81s0,24.75,0,24.75h-3.81s0-24.75,0-24.75Z"/>
      </g>
    </g>
  </g>
</svg>